999
DXF created by Inkscape
  0
SECTION
  2
HEADER
  9
$ACADVER
  1
AC1014
  9
$HANDSEED
  5
FFFF
  9
$MEASUREMENT
 70
     1
  0
ENDSEC
  0
SECTION
  2
TABLES
  0
TABLE
  2
VPORT
  5
8
330
0
100
AcDbSymbolTable
 70
     4
  0
VPORT
  5
2E
330
8
100
AcDbSymbolTableRecord
100
AcDbViewportTableRecord
  2
*ACTIVE
 70
     0
 10
0.0
 20
0.0
 11
1.0
 21
1.0
 12
210.0
 22
148.5
 13
0.0
 23
0.0
 14
10.0
 24
10.0
 15
10.0
 25
10.0
 16
0.0
 26
0.0
 36
1.0
 17
0.0
 27
0.0
 37
0.0
 40
341.0
 41
1.24
 42
50.0
 43
0.0
 44
0.0
 50
0.0
 51
0.0
 71
     0
 72
   100
 73
     1
 74
     3
 75
     0
 76
     0
 77
     0
 78
     0
  0
ENDTAB
  0
TABLE
  2
LTYPE
  5
5
330
0
100
AcDbSymbolTable
 70
     1
  0
LTYPE
  5
14
330
5
100
AcDbSymbolTableRecord
100
AcDbLinetypeTableRecord
  2
BYBLOCK
 70
     0
  3

 72
    65
 73
     0
 40
0.0
  0
LTYPE
  5
15
330
5
100
AcDbSymbolTableRecord
100
AcDbLinetypeTableRecord
  2
BYLAYER
 70
     0
  3

 72
    65
 73
     0
 40
0.0
  0
LTYPE
  5
16
330
5
100
AcDbSymbolTableRecord
100
AcDbLinetypeTableRecord
  2
CONTINUOUS
 70
     0
  3
Solid line
 72
    65
 73
     0
 40
0.0
  0
ENDTAB
  0
TABLE
  2
LAYER
  5
2
100
AcDbSymbolTable
 70
1
  0
LAYER
  5
50
100
AcDbSymbolTableRecord
100
AcDbLayerTableRecord
  2
0
 70
0
  6
CONTINUOUS
  0
ENDTAB
  0
TABLE
  2
STYLE
  5
3
330
0
100
AcDbSymbolTable
 70
     1
  0
STYLE
  5
11
330
3
100
AcDbSymbolTableRecord
100
AcDbTextStyleTableRecord
  2
STANDARD
 70
     0
 40
0.0
 41
1.0
 50
0.0
 71
     0
 42
2.5
  3
txt
  4

  0
ENDTAB
  0
TABLE
  2
VIEW
  5
6
330
0
100
AcDbSymbolTable
 70
     0
  0
ENDTAB
  0
TABLE
  2
UCS
  5
7
330
0
100
AcDbSymbolTable
 70
     0
  0
ENDTAB
  0
TABLE
  2
APPID
  5
9
330
0
100
AcDbSymbolTable
 70
     2
  0
APPID
  5
12
330
9
100
AcDbSymbolTableRecord
100
AcDbRegAppTableRecord
  2
ACAD
 70
     0
  0
ENDTAB
  0
TABLE
  2
DIMSTYLE
  5
A
330
0
100
AcDbSymbolTable
 70
     1
  0
DIMSTYLE
105
27
330
A
100
AcDbSymbolTableRecord
100
AcDbDimStyleTableRecord
  2
ISO-25
 70
     0
  3

  4

  5

  6

  7

 40
1.0
 41
2.5
 42
0.625
 43
3.75
 44
1.25
 45
0.0
 46
0.0
 47
0.0
 48
0.0
140
2.5
141
2.5
142
0.0
143
0.03937007874016
144
1.0
145
0.0
146
1.0
147
0.625
 71
     0
 72
     0
 73
     0
 74
     0
 75
     0
 76
     0
 77
     1
 78
     8
170
     0
171
     3
172
     1
173
     0
174
     0
175
     0
176
     0
177
     0
178
     0
270
     2
271
     2
272
     2
273
     2
274
     3
340
11
275
     0
280
     0
281
     0
282
     0
283
     0
284
     8
285
     0
286
     0
287
     3
288
     0
  0
ENDTAB
  0
TABLE
  2
BLOCK_RECORD
  5
1
330
0
100
AcDbSymbolTable
 70
     1
  0
BLOCK_RECORD
  5
1F
330
1
100
AcDbSymbolTableRecord
100
AcDbBlockTableRecord
  2
*MODEL_SPACE
  0
BLOCK_RECORD
  5
1B
330
1
100
AcDbSymbolTableRecord
100
AcDbBlockTableRecord
  2
*PAPER_SPACE
  0
ENDTAB
  0
ENDSEC
  0
SECTION
  2
BLOCKS
  0
BLOCK
  5
20
330
1F
100
AcDbEntity
  8
0
100
AcDbBlockBegin
  2
*MODEL_SPACE
 70
     0
 10
0.0
 20
0.0
 30
0.0
  3
*MODEL_SPACE
  1

  0
ENDBLK
  5
21
330
1F
100
AcDbEntity
  8
0
100
AcDbBlockEnd
  0
BLOCK
  5
1C
330
1B
100
AcDbEntity
 67
     1
  8
0
100
AcDbBlockBegin
  2
*PAPER_SPACE
  1

  0
ENDBLK
  5
1D
330
1B
100
AcDbEntity
 67
     1
  8
0
100
AcDbBlockEnd
  0
ENDSEC
  0
SECTION
  2
ENTITIES
  0
LWPOLYLINE
  5
100
100
AcDbEntity
  8
0
 62
7
100
AcDbPolyline
 90
121
 70
0
 10
18.529297
 20
21.279660
 30
0.0
 10
17.925495
 20
21.642132
 30
0.0
 10
17.321693
 20
22.004601
 30
0.0
 10
16.791674
 20
22.492860
 30
0.0
 10
16.261656
 20
22.981118
 30
0.0
 10
15.842441
 20
23.553787
 30
0.0
 10
15.423227
 20
24.126455
 30
0.0
 10
15.151836
 20
24.742157
 30
0.0
 10
14.880446
 20
25.357859
 30
0.0
 10
14.704688
 20
39.147792
 30
0.0
 10
14.528930
 20
52.937723
 30
0.0
 10
14.467326
 20
82.336188
 30
0.0
 10
14.405722
 20
111.734654
 30
0.0
 10
14.460171
 20
141.130370
 30
0.0
 10
14.514621
 20
170.526089
 30
0.0
 10
14.687023
 20
184.307780
 30
0.0
 10
14.859426
 20
198.089473
 30
0.0
 10
15.108449
 20
198.717740
 30
0.0
 10
15.357473
 20
199.346006
 30
0.0
 10
15.703752
 20
199.873211
 30
0.0
 10
16.050031
 20
200.400415
 30
0.0
 10
16.511904
 20
200.848693
 30
0.0
 10
16.973777
 20
201.296970
 30
0.0
 10
17.569584
 20
201.688458
 30
0.0
 10
18.165391
 20
202.079945
 30
0.0
 10
18.354841
 20
202.184874
 30
0.0
 10
18.544291
 20
202.289803
 30
0.0
 10
18.733742
 20
202.394733
 30
0.0
 10
18.923192
 20
202.499662
 30
0.0
 10
19.112643
 20
202.604592
 30
0.0
 10
19.302093
 20
202.709521
 30
0.0
 10
19.491544
 20
202.814451
 30
0.0
 10
19.680994
 20
202.919380
 30
0.0
 10
30.423079
 20
202.919380
 30
0.0
 10
41.165162
 20
202.919380
 30
0.0
 10
51.907245
 20
202.919380
 30
0.0
 10
62.649329
 20
202.919380
 30
0.0
 10
73.391412
 20
202.919380
 30
0.0
 10
84.133495
 20
202.919380
 30
0.0
 10
94.875579
 20
202.919380
 30
0.0
 10
105.617662
 20
202.919380
 30
0.0
 10
128.828286
 20
202.912979
 30
0.0
 10
152.038911
 20
202.906578
 30
0.0
 10
165.042373
 20
202.877112
 30
0.0
 10
178.045835
 20
202.847645
 30
0.0
 10
183.807808
 20
202.779723
 30
0.0
 10
189.569784
 20
202.711800
 30
0.0
 10
191.055944
 20
202.590031
 30
0.0
 10
192.542106
 20
202.468261
 30
0.0
 10
193.070796
 20
202.171928
 30
0.0
 10
193.599486
 20
201.875596
 30
0.0
 10
194.079139
 20
201.498484
 30
0.0
 10
194.558790
 20
201.121372
 30
0.0
 10
194.967973
 20
200.683143
 30
0.0
 10
195.377153
 20
200.244915
 30
0.0
 10
195.694430
 20
199.765231
 30
0.0
 10
196.011704
 20
199.285548
 30
0.0
 10
196.089532
 20
199.140055
 30
0.0
 10
196.167361
 20
198.994562
 30
0.0
 10
196.245189
 20
198.849069
 30
0.0
 10
196.323015
 20
198.703576
 30
0.0
 10
196.400843
 20
198.558083
 30
0.0
 10
196.478672
 20
198.412590
 30
0.0
 10
196.556500
 20
198.267097
 30
0.0
 10
196.634329
 20
198.121602
 30
0.0
 10
196.634329
 20
187.323836
 30
0.0
 10
196.634329
 20
176.526069
 30
0.0
 10
196.634329
 20
165.728300
 30
0.0
 10
196.634329
 20
154.930534
 30
0.0
 10
196.634329
 20
144.132768
 30
0.0
 10
196.634329
 20
133.335003
 30
0.0
 10
196.634329
 20
122.537234
 30
0.0
 10
196.634329
 20
111.739468
 30
0.0
 10
196.634329
 20
100.941703
 30
0.0
 10
196.634329
 20
90.143937
 30
0.0
 10
196.634329
 20
79.346168
 30
0.0
 10
196.634329
 20
68.548402
 30
0.0
 10
196.634329
 20
57.750637
 30
0.0
 10
196.634329
 20
46.952871
 30
0.0
 10
196.634329
 20
36.155102
 30
0.0
 10
196.634329
 20
25.357336
 30
0.0
 10
196.527564
 20
25.184648
 30
0.0
 10
196.420796
 20
25.011959
 30
0.0
 10
196.314029
 20
24.839267
 30
0.0
 10
196.207264
 20
24.666578
 30
0.0
 10
196.100497
 20
24.493889
 30
0.0
 10
195.993732
 20
24.321200
 30
0.0
 10
195.886967
 20
24.148508
 30
0.0
 10
195.780200
 20
23.975819
 30
0.0
 10
195.554078
 20
23.657758
 30
0.0
 10
195.327956
 20
23.339699
 30
0.0
 10
195.056461
 20
23.037554
 30
0.0
 10
194.784963
 20
22.735413
 30
0.0
 10
194.482824
 20
22.463915
 30
0.0
 10
194.180683
 20
22.192420
 30
0.0
 10
193.862627
 20
21.966295
 30
0.0
 10
193.544568
 20
21.740173
 30
0.0
 10
193.371879
 20
21.633409
 30
0.0
 10
193.199190
 20
21.526641
 30
0.0
 10
193.026501
 20
21.419876
 30
0.0
 10
192.853815
 20
21.313109
 30
0.0
 10
192.681126
 20
21.206344
 30
0.0
 10
192.508437
 20
21.099577
 30
0.0
 10
192.335748
 20
20.992809
 30
0.0
 10
192.163059
 20
20.886045
 30
0.0
 10
181.382930
 20
20.877917
 30
0.0
 10
170.602800
 20
20.869789
 30
0.0
 10
159.822673
 20
20.861661
 30
0.0
 10
149.042543
 20
20.853533
 30
0.0
 10
138.262414
 20
20.845405
 30
0.0
 10
127.482284
 20
20.837277
 30
0.0
 10
116.702157
 20
20.829149
 30
0.0
 10
105.922027
 20
20.821021
 30
0.0
 10
81.562778
 20
20.807897
 30
0.0
 10
57.203529
 20
20.794774
 30
0.0
 10
44.270233
 20
20.815658
 30
0.0
 10
31.336934
 20
20.836543
 30
0.0
 10
26.125816
 20
20.910886
 30
0.0
 10
20.914700
 20
20.985226
 30
0.0
 10
19.721999
 20
21.132456
 30
0.0
 10
18.529297
 20
21.279660
 30
0.0
  0
LWPOLYLINE
  5
101
100
AcDbEntity
  8
0
 62
7
100
AcDbPolyline
 90
217
 70
0
 10
77.380248
 20
64.388311
 30
0.0
 10
77.924685
 20
64.666015
 30
0.0
 10
78.469123
 20
64.943716
 30
0.0
 10
78.948717
 20
65.290881
 30
0.0
 10
79.428309
 20
65.638042
 30
0.0
 10
79.807223
 20
66.024063
 30
0.0
 10
80.186138
 20
66.410081
 30
0.0
 10
80.428541
 20
66.804354
 30
0.0
 10
80.670942
 20
67.198627
 30
0.0
 10
80.771402
 20
68.272877
 30
0.0
 10
80.871864
 20
69.347131
 30
0.0
 10
80.931650
 20
72.706021
 30
0.0
 10
80.991436
 20
76.064912
 30
0.0
 10
81.020138
 20
82.802928
 30
0.0
 10
81.048843
 20
89.540944
 30
0.0
 10
81.056068
 20
100.752571
 30
0.0
 10
81.063293
 20
111.964202
 30
0.0
 10
81.057761
 20
124.392394
 30
0.0
 10
81.052230
 20
136.820585
 30
0.0
 10
81.020878
 20
143.404466
 30
0.0
 10
80.989526
 20
149.988343
 30
0.0
 10
80.909061
 20
152.654762
 30
0.0
 10
80.828600
 20
155.321178
 30
0.0
 10
80.675740
 20
155.996990
 30
0.0
 10
80.522877
 20
156.672799
 30
0.0
 10
79.975493
 20
157.323858
 30
0.0
 10
79.428111
 20
157.974916
 30
0.0
 10
78.696318
 20
158.456266
 30
0.0
 10
77.964527
 20
158.937613
 30
0.0
 10
77.075702
 20
159.236080
 30
0.0
 10
76.186874
 20
159.534547
 30
0.0
 10
75.168390
 20
159.636962
 30
0.0
 10
74.149884
 20
159.739378
 30
0.0
 10
73.283168
 20
159.677453
 30
0.0
 10
72.416453
 20
159.615528
 30
0.0
 10
71.672543
 20
159.423473
 30
0.0
 10
70.928634
 20
159.231417
 30
0.0
 10
70.282537
 20
158.899820
 30
0.0
 10
69.636440
 20
158.568221
 30
0.0
 10
69.063156
 20
158.087661
 30
0.0
 10
68.489875
 20
157.607102
 30
0.0
 10
68.168774
 20
157.258295
 30
0.0
 10
67.847676
 20
156.909485
 30
0.0
 10
67.676776
 20
156.600003
 30
0.0
 10
67.505876
 20
156.290518
 30
0.0
 10
67.429482
 20
155.851860
 30
0.0
 10
67.353087
 20
155.413205
 30
0.0
 10
67.315501
 20
154.676879
 30
0.0
 10
67.277914
 20
153.940552
 30
0.0
 10
67.265581
 20
153.624712
 30
0.0
 10
67.253248
 20
153.308871
 30
0.0
 10
67.240915
 20
152.993028
 30
0.0
 10
67.228582
 20
152.677187
 30
0.0
 10
67.216249
 20
152.361347
 30
0.0
 10
67.203915
 20
152.045506
 30
0.0
 10
67.191582
 20
151.729663
 30
0.0
 10
67.179249
 20
151.413822
 30
0.0
 10
65.101371
 20
151.413822
 30
0.0
 10
63.023490
 20
151.413822
 30
0.0
 10
60.945612
 20
151.413822
 30
0.0
 10
58.867734
 20
151.413822
 30
0.0
 10
56.789856
 20
151.413822
 30
0.0
 10
54.711978
 20
151.413822
 30
0.0
 10
52.634097
 20
151.413822
 30
0.0
 10
50.556219
 20
151.413822
 30
0.0
 10
48.478341
 20
151.413822
 30
0.0
 10
46.400460
 20
151.413822
 30
0.0
 10
44.322582
 20
151.413822
 30
0.0
 10
42.244704
 20
151.413822
 30
0.0
 10
40.166826
 20
151.413822
 30
0.0
 10
38.088945
 20
151.413822
 30
0.0
 10
36.011067
 20
151.413822
 30
0.0
 10
33.933189
 20
151.413822
 30
0.0
 10
33.933189
 20
151.304354
 30
0.0
 10
33.933189
 20
151.194883
 30
0.0
 10
33.933189
 20
151.085415
 30
0.0
 10
33.933189
 20
150.975943
 30
0.0
 10
33.933189
 20
150.866475
 30
0.0
 10
33.933189
 20
150.757007
 30
0.0
 10
33.933189
 20
150.647535
 30
0.0
 10
33.933189
 20
150.538067
 30
0.0
 10
33.967104
 20
150.296812
 30
0.0
 10
34.001016
 20
150.055557
 30
0.0
 10
34.110467
 20
149.798315
 30
0.0
 10
34.219921
 20
149.541069
 30
0.0
 10
34.416481
 20
149.246991
 30
0.0
 10
34.613040
 20
148.952915
 30
0.0
 10
34.908276
 20
148.601162
 30
0.0
 10
35.203511
 20
148.249409
 30
0.0
 10
35.746075
 20
147.542913
 30
0.0
 10
36.288641
 20
146.836421
 30
0.0
 10
36.765430
 20
146.004788
 30
0.0
 10
37.242219
 20
145.173158
 30
0.0
 10
37.640319
 20
144.242395
 30
0.0
 10
38.038422
 20
143.311632
 30
0.0
 10
38.344929
 20
142.307745
 30
0.0
 10
38.651434
 20
141.303858
 30
0.0
 10
38.714293
 20
141.050913
 30
0.0
 10
38.777150
 20
140.797969
 30
0.0
 10
38.840009
 20
140.545024
 30
0.0
 10
38.902866
 20
140.292080
 30
0.0
 10
38.965725
 20
140.039135
 30
0.0
 10
39.028584
 20
139.786191
 30
0.0
 10
39.091441
 20
139.533246
 30
0.0
 10
39.154300
 20
139.280302
 30
0.0
 10
40.909370
 20
139.280161
 30
0.0
 10
42.664439
 20
139.280019
 30
0.0
 10
44.419509
 20
139.279878
 30
0.0
 10
46.174578
 20
139.279737
 30
0.0
 10
47.929648
 20
139.279596
 30
0.0
 10
49.684717
 20
139.279455
 30
0.0
 10
51.439786
 20
139.279314
 30
0.0
 10
53.194856
 20
139.279173
 30
0.0
 10
54.949925
 20
139.279032
 30
0.0
 10
56.704995
 20
139.278891
 30
0.0
 10
58.460064
 20
139.278749
 30
0.0
 10
60.215134
 20
139.278608
 30
0.0
 10
61.970203
 20
139.278467
 30
0.0
 10
63.725273
 20
139.278326
 30
0.0
 10
65.480342
 20
139.278185
 30
0.0
 10
67.235411
 20
139.278044
 30
0.0
 10
67.235411
 20
138.431733
 30
0.0
 10
67.235411
 20
137.585422
 30
0.0
 10
67.235411
 20
136.739111
 30
0.0
 10
67.235411
 20
135.892802
 30
0.0
 10
67.235411
 20
135.046491
 30
0.0
 10
67.235411
 20
134.200180
 30
0.0
 10
67.235411
 20
133.353869
 30
0.0
 10
67.235411
 20
132.507558
 30
0.0
 10
67.235411
 20
131.661247
 30
0.0
 10
67.235411
 20
130.814936
 30
0.0
 10
67.235411
 20
129.968625
 30
0.0
 10
67.235411
 20
129.122317
 30
0.0
 10
67.235411
 20
128.276006
 30
0.0
 10
67.235411
 20
127.429695
 30
0.0
 10
67.235411
 20
126.583384
 30
0.0
 10
67.235411
 20
125.737072
 30
0.0
 10
65.621453
 20
125.727900
 30
0.0
 10
64.007495
 20
125.718728
 30
0.0
 10
62.393536
 20
125.709556
 30
0.0
 10
60.779578
 20
125.700384
 30
0.0
 10
59.165620
 20
125.691211
 30
0.0
 10
57.551661
 20
125.682039
 30
0.0
 10
55.937703
 20
125.672867
 30
0.0
 10
54.323745
 20
125.663695
 30
0.0
 10
52.709786
 20
125.654522
 30
0.0
 10
51.095828
 20
125.645350
 30
0.0
 10
49.481870
 20
125.636178
 30
0.0
 10
47.867911
 20
125.627006
 30
0.0
 10
46.253953
 20
125.617834
 30
0.0
 10
44.639995
 20
125.608661
 30
0.0
 10
43.026036
 20
125.599489
 30
0.0
 10
41.412078
 20
125.590317
 30
0.0
 10
41.412078
 20
124.831845
 30
0.0
 10
41.412078
 20
124.073372
 30
0.0
 10
41.412078
 20
123.314900
 30
0.0
 10
41.412078
 20
122.556428
 30
0.0
 10
41.412078
 20
121.797956
 30
0.0
 10
41.412078
 20
121.039484
 30
0.0
 10
41.412078
 20
120.281011
 30
0.0
 10
41.412078
 20
119.522539
 30
0.0
 10
41.412078
 20
118.764067
 30
0.0
 10
41.412078
 20
118.005595
 30
0.0
 10
41.412078
 20
117.247122
 30
0.0
 10
41.412078
 20
116.488650
 30
0.0
 10
41.412078
 20
115.730178
 30
0.0
 10
41.412078
 20
114.971706
 30
0.0
 10
41.412078
 20
114.213234
 30
0.0
 10
41.412078
 20
113.454761
 30
0.0
 10
43.026036
 20
113.445589
 30
0.0
 10
44.639995
 20
113.436417
 30
0.0
 10
46.253953
 20
113.427245
 30
0.0
 10
47.867911
 20
113.418072
 30
0.0
 10
49.481870
 20
113.408900
 30
0.0
 10
51.095828
 20
113.399728
 30
0.0
 10
52.709786
 20
113.390556
 30
0.0
 10
54.323745
 20
113.381384
 30
0.0
 10
55.937703
 20
113.372211
 30
0.0
 10
57.551661
 20
113.363039
 30
0.0
 10
59.165620
 20
113.353867
 30
0.0
 10
60.779578
 20
113.344695
 30
0.0
 10
62.393536
 20
113.335522
 30
0.0
 10
64.007495
 20
113.326350
 30
0.0
 10
65.621453
 20
113.317178
 30
0.0
 10
67.235411
 20
113.308006
 30
0.0
 10
67.235411
 20
110.466748
 30
0.0
 10
67.235411
 20
107.625492
 30
0.0
 10
67.235411
 20
104.784234
 30
0.0
 10
67.235411
 20
101.942979
 30
0.0
 10
67.235411
 20
99.101721
 30
0.0
 10
67.235411
 20
96.260463
 30
0.0
 10
67.235411
 20
93.419208
 30
0.0
 10
67.235411
 20
90.577949
 30
0.0
 10
67.242693
 20
83.570812
 30
0.0
 10
67.249974
 20
76.563672
 30
0.0
 10
67.322734
 20
73.026326
 30
0.0
 10
67.395494
 20
69.488981
 30
0.0
 10
67.610090
 20
68.116851
 30
0.0
 10
67.824683
 20
66.744717
 30
0.0
 10
68.257471
 20
66.233215
 30
0.0
 10
68.690256
 20
65.721713
 30
0.0
 10
69.615538
 20
65.131589
 30
0.0
 10
70.540821
 20
64.541465
 30
0.0
 10
71.654831
 20
64.221137
 30
0.0
 10
72.768841
 20
63.900806
 30
0.0
 10
73.949450
 20
63.869014
 30
0.0
 10
75.130059
 20
63.837222
 30
0.0
 10
76.255135
 20
64.112704
 30
0.0
 10
77.380211
 20
64.388190
 30
0.0
 10
77.380211
 20
64.388218
 30
0.0
 10
77.380211
 20
64.388246
 30
0.0
 10
77.380211
 20
64.388275
 30
0.0
 10
77.380211
 20
64.388303
 30
0.0
 10
77.380211
 20
64.388328
 30
0.0
 10
77.380211
 20
64.388357
 30
0.0
 10
77.380211
 20
64.388385
 30
0.0
 10
77.380248
 20
64.388311
 30
0.0
  0
LWPOLYLINE
  5
102
100
AcDbEntity
  8
0
 62
7
100
AcDbPolyline
 90
241
 70
0
 10
141.174145
 20
64.530983
 30
0.0
 10
141.674288
 20
64.786778
 30
0.0
 10
142.174428
 20
65.042576
 30
0.0
 10
142.588234
 20
65.338720
 30
0.0
 10
143.002040
 20
65.634864
 30
0.0
 10
143.333078
 20
65.974406
 30
0.0
 10
143.664119
 20
66.313947
 30
0.0
 10
143.915963
 20
66.699932
 30
0.0
 10
144.167809
 20
67.085918
 30
0.0
 10
144.332909
 20
74.194628
 30
0.0
 10
144.498012
 20
81.303340
 30
0.0
 10
144.554702
 20
96.447791
 30
0.0
 10
144.611392
 20
111.592241
 30
0.0
 10
144.558631
 20
126.762420
 30
0.0
 10
144.505872
 20
141.932601
 30
0.0
 10
144.342626
 20
149.118498
 30
0.0
 10
144.179380
 20
156.304398
 30
0.0
 10
143.245716
 20
157.378900
 30
0.0
 10
142.312051
 20
158.453401
 30
0.0
 10
140.832696
 20
159.035344
 30
0.0
 10
139.353338
 20
159.617283
 30
0.0
 10
137.683635
 20
159.638591
 30
0.0
 10
136.013932
 20
159.659899
 30
0.0
 10
134.509228
 20
159.052508
 30
0.0
 10
133.004526
 20
158.445115
 30
0.0
 10
132.445399
 20
157.969853
 30
0.0
 10
131.886271
 20
157.494591
 30
0.0
 10
131.539048
 20
156.992628
 30
0.0
 10
131.191824
 20
156.490662
 30
0.0
 10
131.014275
 20
155.871802
 30
0.0
 10
130.836724
 20
155.252942
 30
0.0
 10
130.786615
 20
154.426993
 30
0.0
 10
130.736507
 20
153.601042
 30
0.0
 10
130.736374
 20
153.327639
 30
0.0
 10
130.736238
 20
153.054236
 30
0.0
 10
130.736106
 20
152.780833
 30
0.0
 10
130.735973
 20
152.507431
 30
0.0
 10
130.735840
 20
152.234028
 30
0.0
 10
130.735705
 20
151.960625
 30
0.0
 10
130.735572
 20
151.687222
 30
0.0
 10
130.735440
 20
151.413822
 30
0.0
 10
127.842662
 20
151.413822
 30
0.0
 10
124.949884
 20
151.413822
 30
0.0
 10
122.057106
 20
151.413822
 30
0.0
 10
119.164329
 20
151.413822
 30
0.0
 10
116.271551
 20
151.413822
 30
0.0
 10
113.378773
 20
151.413822
 30
0.0
 10
110.485995
 20
151.413822
 30
0.0
 10
107.593217
 20
151.413822
 30
0.0
 10
104.700440
 20
151.413822
 30
0.0
 10
101.807662
 20
151.413822
 30
0.0
 10
98.914884
 20
151.413822
 30
0.0
 10
96.022106
 20
151.413822
 30
0.0
 10
93.129329
 20
151.413822
 30
0.0
 10
90.236551
 20
151.413822
 30
0.0
 10
87.343773
 20
151.413822
 30
0.0
 10
84.450995
 20
151.413822
 30
0.0
 10
84.450995
 20
150.655350
 30
0.0
 10
84.450995
 20
149.896878
 30
0.0
 10
84.450995
 20
149.138406
 30
0.0
 10
84.450995
 20
148.379934
 30
0.0
 10
84.450995
 20
147.621461
 30
0.0
 10
84.450995
 20
146.862989
 30
0.0
 10
84.450995
 20
146.104517
 30
0.0
 10
84.450995
 20
145.346045
 30
0.0
 10
84.450995
 20
144.587572
 30
0.0
 10
84.450995
 20
143.829100
 30
0.0
 10
84.450995
 20
143.070628
 30
0.0
 10
84.450995
 20
142.312156
 30
0.0
 10
84.450995
 20
141.553684
 30
0.0
 10
84.450995
 20
140.795211
 30
0.0
 10
84.450995
 20
140.036739
 30
0.0
 10
84.450995
 20
139.278267
 30
0.0
 10
87.343773
 20
139.278267
 30
0.0
 10
90.236551
 20
139.278267
 30
0.0
 10
93.129329
 20
139.278267
 30
0.0
 10
96.022106
 20
139.278267
 30
0.0
 10
98.914884
 20
139.278267
 30
0.0
 10
101.807662
 20
139.278267
 30
0.0
 10
104.700440
 20
139.278267
 30
0.0
 10
107.593217
 20
139.278267
 30
0.0
 10
110.485995
 20
139.278267
 30
0.0
 10
113.378773
 20
139.278267
 30
0.0
 10
116.271551
 20
139.278267
 30
0.0
 10
119.164329
 20
139.278267
 30
0.0
 10
122.057106
 20
139.278267
 30
0.0
 10
124.949884
 20
139.278267
 30
0.0
 10
127.842662
 20
139.278267
 30
0.0
 10
130.735440
 20
139.278267
 30
0.0
 10
130.735440
 20
138.431600
 30
0.0
 10
130.735440
 20
137.584934
 30
0.0
 10
130.735440
 20
136.738267
 30
0.0
 10
130.735440
 20
135.891600
 30
0.0
 10
130.735440
 20
135.044934
 30
0.0
 10
130.735440
 20
134.198267
 30
0.0
 10
130.735440
 20
133.351600
 30
0.0
 10
130.735440
 20
132.504934
 30
0.0
 10
130.735440
 20
131.658267
 30
0.0
 10
130.735440
 20
130.811600
 30
0.0
 10
130.735440
 20
129.964934
 30
0.0
 10
130.735440
 20
129.118267
 30
0.0
 10
130.735440
 20
128.271600
 30
0.0
 10
130.735440
 20
127.424934
 30
0.0
 10
130.735440
 20
126.578267
 30
0.0
 10
130.735440
 20
125.731600
 30
0.0
 10
129.465440
 20
125.731600
 30
0.0
 10
128.195440
 20
125.731600
 30
0.0
 10
126.925440
 20
125.731600
 30
0.0
 10
125.655440
 20
125.731600
 30
0.0
 10
124.385440
 20
125.731600
 30
0.0
 10
123.115440
 20
125.731600
 30
0.0
 10
121.845440
 20
125.731600
 30
0.0
 10
120.575440
 20
125.731600
 30
0.0
 10
119.305440
 20
125.731600
 30
0.0
 10
118.035440
 20
125.731600
 30
0.0
 10
116.765440
 20
125.731600
 30
0.0
 10
115.495440
 20
125.731600
 30
0.0
 10
114.225440
 20
125.731600
 30
0.0
 10
112.955440
 20
125.731600
 30
0.0
 10
111.685440
 20
125.731600
 30
0.0
 10
110.415440
 20
125.731600
 30
0.0
 10
110.415440
 20
126.367656
 30
0.0
 10
110.415440
 20
127.003708
 30
0.0
 10
110.415440
 20
127.639764
 30
0.0
 10
110.415440
 20
128.275817
 30
0.0
 10
110.415440
 20
128.911872
 30
0.0
 10
110.415440
 20
129.547925
 30
0.0
 10
110.415440
 20
130.183980
 30
0.0
 10
110.415440
 20
130.820033
 30
0.0
 10
110.415440
 20
131.456086
 30
0.0
 10
110.415440
 20
132.092141
 30
0.0
 10
110.415440
 20
132.728194
 30
0.0
 10
110.415440
 20
133.364247
 30
0.0
 10
110.415440
 20
134.000302
 30
0.0
 10
110.415440
 20
134.636355
 30
0.0
 10
110.415440
 20
135.272410
 30
0.0
 10
110.415440
 20
135.908463
 30
0.0
 10
109.965648
 20
135.898585
 30
0.0
 10
109.515856
 20
135.888707
 30
0.0
 10
109.066065
 20
135.878830
 30
0.0
 10
108.616273
 20
135.868952
 30
0.0
 10
108.166481
 20
135.859074
 30
0.0
 10
107.716690
 20
135.849196
 30
0.0
 10
107.266898
 20
135.839319
 30
0.0
 10
106.817106
 20
135.829441
 30
0.0
 10
106.367315
 20
135.819563
 30
0.0
 10
105.917523
 20
135.809685
 30
0.0
 10
105.467731
 20
135.799807
 30
0.0
 10
105.017940
 20
135.789930
 30
0.0
 10
104.568148
 20
135.780052
 30
0.0
 10
104.118356
 20
135.770174
 30
0.0
 10
103.668565
 20
135.760296
 30
0.0
 10
103.218773
 20
135.750419
 30
0.0
 10
103.209149
 20
135.124238
 30
0.0
 10
103.199525
 20
134.498057
 30
0.0
 10
103.189902
 20
133.871877
 30
0.0
 10
103.180278
 20
133.245696
 30
0.0
 10
103.170654
 20
132.619516
 30
0.0
 10
103.161030
 20
131.993335
 30
0.0
 10
103.151407
 20
131.367155
 30
0.0
 10
103.141783
 20
130.740974
 30
0.0
 10
103.132159
 20
130.114794
 30
0.0
 10
103.122535
 20
129.488613
 30
0.0
 10
103.112911
 20
128.862432
 30
0.0
 10
103.103288
 20
128.236252
 30
0.0
 10
103.093664
 20
127.610071
 30
0.0
 10
103.084040
 20
126.983891
 30
0.0
 10
103.074416
 20
126.357710
 30
0.0
 10
103.064793
 20
125.731530
 30
0.0
 10
101.901439
 20
125.731530
 30
0.0
 10
100.738088
 20
125.731530
 30
0.0
 10
99.574734
 20
125.731530
 30
0.0
 10
98.411383
 20
125.731530
 30
0.0
 10
97.248029
 20
125.731530
 30
0.0
 10
96.084678
 20
125.731530
 30
0.0
 10
94.921324
 20
125.731530
 30
0.0
 10
93.757973
 20
125.731530
 30
0.0
 10
92.594619
 20
125.731530
 30
0.0
 10
91.431268
 20
125.731530
 30
0.0
 10
90.267914
 20
125.731530
 30
0.0
 10
89.104563
 20
125.731530
 30
0.0
 10
87.941209
 20
125.731530
 30
0.0
 10
86.777855
 20
125.731530
 30
0.0
 10
85.614504
 20
125.731530
 30
0.0
 10
84.451150
 20
125.731530
 30
0.0
 10
84.451150
 20
124.955419
 30
0.0
 10
84.451150
 20
124.179307
 30
0.0
 10
84.451150
 20
123.403196
 30
0.0
 10
84.451150
 20
122.627085
 30
0.0
 10
84.451150
 20
121.850974
 30
0.0
 10
84.451150
 20
121.074863
 30
0.0
 10
84.451150
 20
120.298752
 30
0.0
 10
84.451150
 20
119.522641
 30
0.0
 10
84.451150
 20
118.746530
 30
0.0
 10
84.451150
 20
117.970419
 30
0.0
 10
84.451150
 20
117.194307
 30
0.0
 10
84.451150
 20
116.418196
 30
0.0
 10
84.451150
 20
115.642085
 30
0.0
 10
84.451150
 20
114.865974
 30
0.0
 10
84.451150
 20
114.089863
 30
0.0
 10
84.451150
 20
113.313752
 30
0.0
 10
87.343928
 20
113.313752
 30
0.0
 10
90.236706
 20
113.313752
 30
0.0
 10
93.129484
 20
113.313752
 30
0.0
 10
96.022262
 20
113.313752
 30
0.0
 10
98.915039
 20
113.313752
 30
0.0
 10
101.807817
 20
113.313752
 30
0.0
 10
104.700595
 20
113.313752
 30
0.0
 10
107.593373
 20
113.313752
 30
0.0
 10
110.486150
 20
113.313752
 30
0.0
 10
113.378928
 20
113.313752
 30
0.0
 10
116.271706
 20
113.313752
 30
0.0
 10
119.164484
 20
113.313752
 30
0.0
 10
122.057262
 20
113.313752
 30
0.0
 10
124.950039
 20
113.313752
 30
0.0
 10
127.842817
 20
113.313752
 30
0.0
 10
130.735595
 20
113.313752
 30
0.0
 10
130.735595
 20
110.472138
 30
0.0
 10
130.735595
 20
107.630524
 30
0.0
 10
130.735595
 20
104.788914
 30
0.0
 10
130.735595
 20
101.947300
 30
0.0
 10
130.735595
 20
99.105686
 30
0.0
 10
130.735595
 20
96.264075
 30
0.0
 10
130.735595
 20
93.422462
 30
0.0
 10
130.735595
 20
90.580848
 30
0.0
 10
130.742876
 20
83.572838
 30
0.0
 10
130.750158
 20
76.564826
 30
0.0
 10
130.822917
 20
73.027066
 30
0.0
 10
130.895677
 20
69.489306
 30
0.0
 10
131.110273
 20
68.117043
 30
0.0
 10
131.324866
 20
66.744782
 30
0.0
 10
131.757654
 20
66.233274
 30
0.0
 10
132.190442
 20
65.721763
 30
0.0
 10
133.145843
 20
65.111630
 30
0.0
 10
134.101247
 20
64.501497
 30
0.0
 10
135.238290
 20
64.189613
 30
0.0
 10
136.375335
 20
63.877729
 30
0.0
 10
137.589139
 20
63.877997
 30
0.0
 10
138.802940
 20
63.878265
 30
0.0
 10
139.988617
 20
64.204590
 30
0.0
 10
141.174145
 20
64.530983
 30
0.0
  0
LWPOLYLINE
  5
103
100
AcDbEntity
  8
0
 62
7
100
AcDbPolyline
 90
65
 70
0
 10
168.553217
 20
119.522711
 30
0.0
 10
168.553217
 20
120.298822
 30
0.0
 10
168.553217
 20
121.074934
 30
0.0
 10
168.553217
 20
121.851045
 30
0.0
 10
168.553217
 20
122.627156
 30
0.0
 10
168.553217
 20
123.403267
 30
0.0
 10
168.553217
 20
124.179378
 30
0.0
 10
168.553217
 20
124.955489
 30
0.0
 10
168.553217
 20
125.731600
 30
0.0
 10
167.247940
 20
125.731600
 30
0.0
 10
165.942662
 20
125.731600
 30
0.0
 10
164.637384
 20
125.731600
 30
0.0
 10
163.332106
 20
125.731600
 30
0.0
 10
162.026829
 20
125.731600
 30
0.0
 10
160.721551
 20
125.731600
 30
0.0
 10
159.416273
 20
125.731600
 30
0.0
 10
158.110995
 20
125.731600
 30
0.0
 10
156.805717
 20
125.731600
 30
0.0
 10
155.500440
 20
125.731600
 30
0.0
 10
154.195162
 20
125.731600
 30
0.0
 10
152.889884
 20
125.731600
 30
0.0
 10
151.584606
 20
125.731600
 30
0.0
 10
150.279329
 20
125.731600
 30
0.0
 10
148.974051
 20
125.731600
 30
0.0
 10
147.668773
 20
125.731600
 30
0.0
 10
147.668773
 20
124.955489
 30
0.0
 10
147.668773
 20
124.179378
 30
0.0
 10
147.668773
 20
123.403267
 30
0.0
 10
147.668773
 20
122.627156
 30
0.0
 10
147.668773
 20
121.851045
 30
0.0
 10
147.668773
 20
121.074934
 30
0.0
 10
147.668773
 20
120.298822
 30
0.0
 10
147.668773
 20
119.522711
 30
0.0
 10
147.668773
 20
118.746600
 30
0.0
 10
147.668773
 20
117.970489
 30
0.0
 10
147.668773
 20
117.194378
 30
0.0
 10
147.668773
 20
116.418267
 30
0.0
 10
147.668773
 20
115.642156
 30
0.0
 10
147.668773
 20
114.866045
 30
0.0
 10
147.668773
 20
114.089934
 30
0.0
 10
147.668773
 20
113.313822
 30
0.0
 10
148.974051
 20
113.313822
 30
0.0
 10
150.279329
 20
113.313822
 30
0.0
 10
151.584606
 20
113.313822
 30
0.0
 10
152.889884
 20
113.313822
 30
0.0
 10
154.195162
 20
113.313822
 30
0.0
 10
155.500440
 20
113.313822
 30
0.0
 10
156.805717
 20
113.313822
 30
0.0
 10
158.110995
 20
113.313822
 30
0.0
 10
159.416273
 20
113.313822
 30
0.0
 10
160.721551
 20
113.313822
 30
0.0
 10
162.026829
 20
113.313822
 30
0.0
 10
163.332106
 20
113.313822
 30
0.0
 10
164.637384
 20
113.313822
 30
0.0
 10
165.942662
 20
113.313822
 30
0.0
 10
167.247940
 20
113.313822
 30
0.0
 10
168.553217
 20
113.313822
 30
0.0
 10
168.553217
 20
114.089934
 30
0.0
 10
168.553217
 20
114.866045
 30
0.0
 10
168.553217
 20
115.642156
 30
0.0
 10
168.553217
 20
116.418267
 30
0.0
 10
168.553217
 20
117.194378
 30
0.0
 10
168.553217
 20
117.970489
 30
0.0
 10
168.553217
 20
118.746600
 30
0.0
 10
168.553217
 20
119.522711
 30
0.0
  0
LWPOLYLINE
  5
104
100
AcDbEntity
  8
0
 62
7
100
AcDbPolyline
 90
89
 70
0
 10
172.711745
 20
141.547269
 30
0.0
 10
173.046779
 20
142.587246
 30
0.0
 10
173.381811
 20
143.627221
 30
0.0
 10
173.771317
 20
144.529672
 30
0.0
 10
174.160823
 20
145.432120
 30
0.0
 10
174.611572
 20
146.210587
 30
0.0
 10
175.062323
 20
146.989052
 30
0.0
 10
175.581084
 20
147.657081
 30
0.0
 10
176.099848
 20
148.325109
 30
0.0
 10
176.377140
 20
148.657420
 30
0.0
 10
176.654429
 20
148.989731
 30
0.0
 10
176.840696
 20
149.273218
 30
0.0
 10
177.026959
 20
149.556704
 30
0.0
 10
177.131729
 20
149.808912
 30
0.0
 10
177.236495
 20
150.061123
 30
0.0
 10
177.269301
 20
150.299595
 30
0.0
 10
177.302106
 20
150.538067
 30
0.0
 10
177.302106
 20
150.647535
 30
0.0
 10
177.302106
 20
150.757007
 30
0.0
 10
177.302106
 20
150.866475
 30
0.0
 10
177.302106
 20
150.975943
 30
0.0
 10
177.302106
 20
151.085415
 30
0.0
 10
177.302106
 20
151.194883
 30
0.0
 10
177.302106
 20
151.304354
 30
0.0
 10
177.302106
 20
151.413822
 30
0.0
 10
175.450023
 20
151.413822
 30
0.0
 10
173.597940
 20
151.413822
 30
0.0
 10
171.745856
 20
151.413822
 30
0.0
 10
169.893773
 20
151.413822
 30
0.0
 10
168.041690
 20
151.413822
 30
0.0
 10
166.189606
 20
151.413822
 30
0.0
 10
164.337523
 20
151.413822
 30
0.0
 10
162.485440
 20
151.413822
 30
0.0
 10
160.633356
 20
151.413822
 30
0.0
 10
158.781273
 20
151.413822
 30
0.0
 10
156.929190
 20
151.413822
 30
0.0
 10
155.077106
 20
151.413822
 30
0.0
 10
153.225023
 20
151.413822
 30
0.0
 10
151.372940
 20
151.413822
 30
0.0
 10
149.520856
 20
151.413822
 30
0.0
 10
147.668773
 20
151.413822
 30
0.0
 10
147.668773
 20
150.655350
 30
0.0
 10
147.668773
 20
149.896878
 30
0.0
 10
147.668773
 20
149.138406
 30
0.0
 10
147.668773
 20
148.379934
 30
0.0
 10
147.668773
 20
147.621461
 30
0.0
 10
147.668773
 20
146.862989
 30
0.0
 10
147.668773
 20
146.104517
 30
0.0
 10
147.668773
 20
145.346045
 30
0.0
 10
147.668773
 20
144.587572
 30
0.0
 10
147.668773
 20
143.829100
 30
0.0
 10
147.668773
 20
143.070628
 30
0.0
 10
147.668773
 20
142.312156
 30
0.0
 10
147.668773
 20
141.553684
 30
0.0
 10
147.668773
 20
140.795211
 30
0.0
 10
147.668773
 20
140.036739
 30
0.0
 10
147.668773
 20
139.278267
 30
0.0
 10
149.194537
 20
139.278549
 30
0.0
 10
150.720301
 20
139.278831
 30
0.0
 10
152.246065
 20
139.279114
 30
0.0
 10
153.771829
 20
139.279396
 30
0.0
 10
155.297592
 20
139.279678
 30
0.0
 10
156.823356
 20
139.279960
 30
0.0
 10
158.349120
 20
139.280242
 30
0.0
 10
159.874884
 20
139.280525
 30
0.0
 10
161.400648
 20
139.280807
 30
0.0
 10
162.926412
 20
139.281089
 30
0.0
 10
164.452176
 20
139.281371
 30
0.0
 10
165.977940
 20
139.281654
 30
0.0
 10
167.503704
 20
139.281936
 30
0.0
 10
169.029467
 20
139.282218
 30
0.0
 10
170.555231
 20
139.282500
 30
0.0
 10
172.080995
 20
139.282782
 30
0.0
 10
172.159840
 20
139.565874
 30
0.0
 10
172.238684
 20
139.848965
 30
0.0
 10
172.317526
 20
140.132054
 30
0.0
 10
172.396370
 20
140.415145
 30
0.0
 10
172.475215
 20
140.698237
 30
0.0
 10
172.554056
 20
140.981328
 30
0.0
 10
172.632901
 20
141.264417
 30
0.0
 10
172.711745
 20
141.547509
 30
0.0
 10
172.711745
 20
141.547477
 30
0.0
 10
172.711745
 20
141.547449
 30
0.0
 10
172.711745
 20
141.547418
 30
0.0
 10
172.711745
 20
141.547387
 30
0.0
 10
172.711745
 20
141.547359
 30
0.0
 10
172.711745
 20
141.547328
 30
0.0
 10
172.711745
 20
141.547300
 30
0.0
 10
172.711745
 20
141.547269
 30
0.0
  0
ENDSEC
  0
SECTION
  2
OBJECTS
  0
DICTIONARY
  5
C
330
0
100
AcDbDictionary
  3
ACAD_GROUP
350
D
  3
ACAD_MLINESTYLE
350
17
  0
DICTIONARY
  5
D
330
C
100
AcDbDictionary
  0
DICTIONARY
  5
1A
330
C
100
AcDbDictionary
  0
DICTIONARY
  5
17
330
C
100
AcDbDictionary
  3
STANDARD
350
18
  0
DICTIONARY
  5
19
330
C
100
AcDbDictionary
  0
ENDSEC
  0
EOF
